<svg width="24" height="24" viewBox="0 0 24 24" fill="none" xmlns="http://www.w3.org/2000/svg">
<path d="M23.2902 9.81577H11.9922V14.4594H18.4464C18.1681 15.9604 17.3238 17.23 16.0511 18.0805C14.9754 18.7997 13.6026 19.225 11.9891 19.225C8.86515 19.225 6.2228 17.1143 5.27844 14.278C5.04078 13.5588 4.90319 12.7896 4.90319 11.9984C4.90319 11.2073 5.04078 10.438 5.27844 9.71883C6.22593 6.88573 8.86827 4.77498 11.9922 4.77498C13.7527 4.77498 15.3319 5.38163 16.5764 6.5699L20.0162 3.12704C17.9367 1.18827 15.2255 0 11.9922 0C7.30476 0 3.24899 2.68925 1.27583 6.61055C0.462801 8.23036 0 10.0628 0 12.0016C0 13.9403 0.462801 15.7696 1.27583 17.3894C3.24899 21.3107 7.30476 24 11.9922 24C15.2318 24 17.9461 22.9243 19.9286 21.0919C22.1957 19.003 23.5059 15.926 23.5059 12.2705C23.5059 11.4199 23.4309 10.6038 23.2902 9.81577Z" fill="black"/>
</svg>
